<?xml version="1.0" encoding="UTF-8"?>
<svg width="1366px" height="598px" viewBox="0 0 1366 598" version="1.1" xmlns="http://www.w3.org/2000/svg" xmlns:xlink="http://www.w3.org/1999/xlink" style="background: #F9F9F9;">
    <!-- Generator: Sketch 63.1 (92452) - https://sketch.com -->
    <title>hero-bg</title>
    <desc>Created with Sketch.</desc>
    <g id="hero-bg" stroke="none" strokeWidth="1" fill="none" fill-rule="evenodd">
        <rect fill="#F9F9F9" x="0" y="0" width="1366" height="598"></rect>
        <g id="Hero/Desktop/Right" transform="translate(-511.000000, -100.000000)">
            <g id="Group-2">
                <g id="Group" transform="translate(650.000000, 0.000000)" fill="#000000" opacity="0.0196475074">
                    <polygon id="Path-48" points="0 240 121 364 172 0"></polygon>
                    <polygon id="Path" points="933 100 1143 320 1213 239 933 81"></polygon>
                    <polygon id="Path-49" points="584 554 759 625 689 279"></polygon>
                    <polygon id="Path-50" points="734 100 962 433 870 100"></polygon>
                    <polygon id="Path-51" points="121 364 150 746 277 734"></polygon>
                    <polygon id="Path-52" points="1035 461 996 661 1324 512"></polygon>
                </g>
                <polygon id="Path-53" fill="#FFFFFF" opacity="0.575823103" points="650 239 511 29 511 319"></polygon>
                <polygon id="Path-54" fill="#FFFFFF" opacity="0.575823103" points="1612 430 1520 563 1646 661"></polygon>
                <polygon id="Path-55" fill="#FFFFFF" opacity="0.575823103" points="771 364 808 840 581 775"></polygon>
                <g opacity="0.0579659598" transform="translate(0.000000, 39.000000)">
                    <polyline id="Path-2" stroke="#000000" stroke-linecap="square" points="1777.80227 52.4204545 1863.17273 200.695455 1975.50227 146.777273 1960.525 262.102273 2156.72727 429.847727 1975.50227 473.281818 2156.72727 585.611364 2132.76364 659"></polyline>
                    <line x1="1863.17273" y1="200.695455" x2="1863.17273" y2="52.4204545" id="Path-3" stroke="#000000" stroke-linecap="square"></line>
                    <line x1="1863.17273" y1="200.695455" x2="1938.05909" y2="0" id="Path-4" stroke="#000000" stroke-linecap="square"></line>
                    <polyline id="Path-7" stroke="#000000" stroke-linecap="square" points="1960.525 262.102273 1863.17273 200.695455 1539 17 1792.77955 280.075"></polyline>
                    <line x1="1792.77955" y1="280.075" x2="1863.17273" y2="200.695455" id="Path-8" stroke="#000000" stroke-linecap="square"></line>
                    <line x1="1792.77955" y1="280.075" x2="1960.525" y2="262.102273" id="Path-9" stroke="#000000" stroke-linecap="square"></line>
                    <polyline id="Path-10" stroke="#000000" stroke-linecap="square" points="1960.525 262.102273 1975.50227 473.281818 1792.77955 280.075"></polyline>
                    <polyline id="Path-11" stroke="#000000" stroke-linecap="square" points="1792.77955 280.075 1684.94318 422.359091 1974.00455 473.281818"></polyline>
                    <line x1="1975.50227" y1="473.281818" x2="1828.725" y2="659" id="Path-14" stroke="#000000" stroke-linecap="square"></line>
                    <polyline id="Path-15" stroke="#000000" stroke-linecap="square" points="1975.50227 473.281818 1646.00227 621.556818 1668.46818 659"></polyline>
                    <polyline id="Path-16" stroke="#000000" stroke-linecap="square" points="1646.00227 621.556818 1684.94318 422.359091 1611.55455 390.906818 1792.77955 280.075"></polyline>
                    <polyline id="Path-17" stroke="#000000" stroke-linecap="square" points="1517 52 1611.55455 390.906818 1646.00227 621.556818 1611.55455 659"></polyline>
                    <polyline id="Path-18" stroke="#000000" stroke-linecap="square" points="1646.00227 621.556818 1520.19318 524.204545 1611.55455 390.906818 1379 56 1338.96818 244.129545"></polyline>
                    <polyline id="Path-19" stroke="#000000" stroke-linecap="square" points="1611.55455 390.906818 1338.96818 244.129545 1292.53864 52.4204545"></polyline>
                    <polyline id="Path-20" stroke="#000000" stroke-linecap="square" points="1338.96818 241.134091 1520.19318 524.204545 1565.125 659"></polyline>
                    <polyline id="Path-21" stroke="#000000" stroke-linecap="square" points="1520.19318 659 1409.36136 585.611364 1520.19318 524.204545"></polyline>
                    <polygon id="Path-22" stroke="#000000" stroke-linecap="square" points="1409.36136 585.611364 1338.96818 241.134091 1234.12727 515.218182"></polygon>
                    <polyline id="Path-23" stroke="#000000" stroke-linecap="square" points="1433.325 659 1409.36136 585.611364 1383.9 659"></polyline>
                    <polyline id="Path-24" stroke="#000000" stroke-linecap="square" points="1195.18636 659 1210.16364 576.625 1243.11364 659"></polyline>
                    <line x1="1210.16364" y1="576.625" x2="1409.36136" y2="585.611364" id="Path-25" stroke="#000000" stroke-linecap="square"></line>
                    <line x1="1210.16364" y1="576.625" x2="1234.12727" y2="515.218182" id="Path-26" stroke="#000000" stroke-linecap="square"></line>
                    <polyline id="Path-27" stroke="#000000" stroke-linecap="square" points="1009.46818 52.4204545 1338.96818 244.129545 771.329545 325.006818 1234.12727 515.218182"></polyline>
                    <polyline id="Path-28" stroke="#000000" stroke-linecap="square" points="1087.35 659 1210.16364 576.625 771.329545 325.006818 810.270455 52.4204545"></polyline>
                    <polyline id="Path-29" stroke="#000000" stroke-linecap="square" points="910.618182 659 771.329545 325.006818 796.790909 659"></polyline>
                    <polyline id="Path-30" stroke="#000000" stroke-linecap="square" points="620.059091 659 771.329545 325.006818 650.013636 200.695455 753.356818 52.4204545"></polyline>
                    <polyline id="Path-31" stroke="#000000" stroke-linecap="square" points="552.661364 52.4204545 650.013636 200.695455 659 52.4204545"></polyline>
                    <polyline id="Path-32" stroke="#000000" stroke-linecap="square" points="542.177273 659 420.861364 325.006818 771.329545 325.006818"></polyline>
                    <polyline id="Path-33" stroke="#000000" stroke-linecap="square" points="650.013636 200.695455 420.861364 325.006818 443.327273 52.4204545"></polyline>
                    <path d="M1646.01591,616.570455 C1648.77733,616.570455 1651.01591,618.809031 1651.01591,621.570455 C1651.01591,624.331878 1648.77733,626.570455 1646.01591,626.570455 C1643.25449,626.570455 1641.01591,624.331878 1641.01591,621.570455 C1641.01591,618.809031 1643.25449,616.570455 1646.01591,616.570455 Z M1409.375,580.625 C1412.13642,580.625 1414.375,582.863576 1414.375,585.625 C1414.375,588.386424 1412.13642,590.625 1409.375,590.625 C1406.61358,590.625 1404.375,588.386424 1404.375,585.625 C1404.375,582.863576 1406.61358,580.625 1409.375,580.625 Z M1210.17727,571.638636 C1212.9387,571.638636 1215.17727,573.877213 1215.17727,576.638636 C1215.17727,579.40006 1212.9387,581.638636 1210.17727,581.638636 C1207.41585,581.638636 1205.17727,579.40006 1205.17727,576.638636 C1205.17727,573.877213 1207.41585,571.638636 1210.17727,571.638636 Z M1520.21136,518.218182 C1522.97279,518.218182 1525.21136,520.456758 1525.21136,523.218182 C1525.21136,525.979606 1522.97279,528.218182 1520.21136,528.218182 C1517.44994,528.218182 1515.21136,525.979606 1515.21136,523.218182 C1515.21136,520.456758 1517.44994,518.218182 1520.21136,518.218182 Z M1234.14091,510.231818 C1236.90233,510.231818 1239.14091,512.470394 1239.14091,515.231818 C1239.14091,517.993242 1236.90233,520.231818 1234.14091,520.231818 C1231.37949,520.231818 1229.14091,517.993242 1229.14091,515.231818 C1229.14091,512.470394 1231.37949,510.231818 1234.14091,510.231818 Z M1684.95682,417.372727 C1687.71824,417.372727 1689.95682,419.611304 1689.95682,422.372727 C1689.95682,425.134151 1687.71824,427.372727 1684.95682,427.372727 C1682.19539,427.372727 1679.95682,425.134151 1679.95682,422.372727 C1679.95682,419.611304 1682.19539,417.372727 1684.95682,417.372727 Z M1611.56818,385.920455 C1614.32961,385.920455 1616.56818,388.159031 1616.56818,390.920455 C1616.56818,393.681878 1614.32961,395.920455 1611.56818,395.920455 C1608.80676,395.920455 1606.56818,393.681878 1606.56818,390.920455 C1606.56818,388.159031 1608.80676,385.920455 1611.56818,385.920455 Z M771.343182,320.020455 C774.104606,320.020455 776.343182,322.259031 776.343182,325.020455 C776.343182,327.781878 774.104606,330.020455 771.343182,330.020455 C768.581758,330.020455 766.343182,327.781878 766.343182,325.020455 C766.343182,322.259031 768.581758,320.020455 771.343182,320.020455 Z M1792.79318,275.088636 C1795.55461,275.088636 1797.79318,277.327213 1797.79318,280.088636 C1797.79318,282.85006 1795.55461,285.088636 1792.79318,285.088636 C1790.03176,285.088636 1787.79318,282.85006 1787.79318,280.088636 C1787.79318,277.327213 1790.03176,275.088636 1792.79318,275.088636 Z M1339.98182,239.147727 C1342.74324,239.147727 1344.98182,241.386304 1344.98182,244.147727 C1344.98182,246.909151 1342.74324,249.147727 1339.98182,249.147727 C1337.22039,249.147727 1334.98182,246.909151 1334.98182,244.147727 C1334.98182,241.386304 1337.22039,239.147727 1339.98182,239.147727 Z M650.027273,195.709091 C652.788697,195.709091 655.027273,197.947667 655.027273,200.709091 C655.027273,203.470515 652.788697,205.709091 650.027273,205.709091 C647.265849,205.709091 645.027273,203.470515 645.027273,200.709091 C645.027273,197.947667 647.265849,195.709091 650.027273,195.709091 Z M1863.18636,194.960227 C1865.94779,194.960227 1868.18636,197.198804 1868.18636,199.960227 C1868.18636,202.721651 1865.94779,204.960227 1863.18636,204.960227 C1860.42494,204.960227 1858.18636,202.721651 1858.18636,199.960227 C1858.18636,197.198804 1860.42494,194.960227 1863.18636,194.960227 Z" id="Combined-Shape" fill="#000000"></path>
                </g>
            </g>
        </g>
    </g>
</svg>