<?xml version="1.0" encoding="UTF-8"?>
<svg width="2140px" height="598px" viewBox="0 0 2140 598" version="1.1" xmlns="http://www.w3.org/2000/svg" xmlns:xlink="http://www.w3.org/1999/xlink" style="background: #111111;">
    <title>hero-bg-lg-dark</title>
    <g id="hero-bg-lg-dark" stroke="none" stroke-width="1" fill="none" fill-rule="evenodd">
        <rect fill="#111111" x="0" y="0" width="2140" height="598"></rect>
        <g id="Group-2" transform="translate(-17.000000, -100.000000)">
            <g id="Group" transform="translate(37.000000, 0.000000)" fill="#000000" opacity="0.125999273">
                <polygon id="Path-48" points="613 240 734 364 785 0"></polygon>
                <polygon id="Path" points="1546 100 1756 320 1826 239 1546 81"></polygon>
                <polygon id="Path-49" points="1197 554 1372 625 1302 279"></polygon>
                <polygon id="Path-50" points="1347 100 1575 433 1483 100"></polygon>
                <polygon id="Path-51" points="734 364 763 746 890 734"></polygon>
                <polygon id="Path-52" points="1648 461 1609 661 1937 512"></polygon>
                <polygon id="Path-56" points="198 433 384 364 288 572"></polygon>
                <polygon id="Path-57" points="1923 301 2120 310 2120 468"></polygon>
                <polygon id="Path-58" points="1939 513 2039 698 1915 698"></polygon>
                <polygon id="Path-61" points="46 292 132 176 76 100 0 100"></polygon>
            </g>
            <polygon id="Path-53" fill="#FFFFFF" opacity="0.022597202" points="650 239 518 39 443 100 421 364"></polygon>
            <polygon id="Path-54" fill="#FFFFFF" opacity="0.022597202" points="1612 430 1520 563 1646 661"></polygon>
            <polygon id="Path-55" fill="#FFFFFF" opacity="0.022597202" points="771 364 808 840 581 775"></polygon>
            <polygon id="Path-59" fill="#FFFFFF" opacity="0.022597202" points="83 292 169 177 235 433"></polygon>
            <polygon id="Path-60" fill="#FFFFFF" opacity="0.022597202" points="1863 239 1793 320 1960 301"></polygon>
            <polygon id="Path-62" fill="#FFFFFF" opacity="0.022597202" points="1975 186 1974 100 2075 100"></polygon>
            <g transform="translate(0.000000, 39.000000)">
                <polyline id="Path-2" stroke="#222222" stroke-linecap="square" points="1777.80227 52.4204545 1863.17273 200.695455 1975.50227 146.777273 1960.525 262.102273 2156.72727 429.847727 1975.50227 473.281818 2156.72727 585.611364 2132.76364 659"></polyline>
                <line x1="1863.17273" y1="200.695455" x2="1863.17273" y2="52.4204545" id="Path-3" stroke="#222222" stroke-linecap="square"></line>
                <line x1="1863.17273" y1="200.695455" x2="1938.05909" y2="0" id="Path-4" stroke="#222222" stroke-linecap="square"></line>
                <polyline id="Path-5" stroke="#222222" stroke-linecap="square" points="1974.00455 52.4204545 1975.50227 146.777273 2084.83636 52.4204545"></polyline>
                <polyline id="Path-6" stroke="#222222" stroke-linecap="square" points="1974.00455 146.777273 2156.72727 271.088636 1960.525 262.102273"></polyline>
                <polyline id="Path-7" stroke="#222222" stroke-linecap="square" points="1960.525 262.102273 1863.17273 200.695455 1539 17 1792.77955 280.075"></polyline>
                <line x1="1792.77955" y1="280.075" x2="1863.17273" y2="200.695455" id="Path-8" stroke="#222222" stroke-linecap="square"></line>
                <line x1="1792.77955" y1="280.075" x2="1960.525" y2="262.102273" id="Path-9" stroke="#222222" stroke-linecap="square"></line>
                <polyline id="Path-10" stroke="#222222" stroke-linecap="square" points="1960.525 262.102273 1975.50227 473.281818 1792.77955 280.075"></polyline>
                <polyline id="Path-11" stroke="#222222" stroke-linecap="square" points="1792.77955 280.075 1684.94318 422.359091 1974.00455 473.281818"></polyline>
                <line x1="1975.50227" y1="473.281818" x2="2075.85" y2="659" id="Path-12" stroke="#222222" stroke-linecap="square"></line>
                <line x1="1975.50227" y1="473.281818" x2="1951.53864" y2="659" id="Path-13" stroke="#222222" stroke-linecap="square"></line>
                <line x1="1975.50227" y1="473.281818" x2="1828.725" y2="659" id="Path-14" stroke="#222222" stroke-linecap="square"></line>
                <polyline id="Path-15" stroke="#222222" stroke-linecap="square" points="1975.50227 473.281818 1646.00227 621.556818 1668.46818 659"></polyline>
                <polyline id="Path-16" stroke="#222222" stroke-linecap="square" points="1646.00227 621.556818 1684.94318 422.359091 1611.55455 390.906818 1792.77955 280.075"></polyline>
                <polyline id="Path-17" stroke="#222222" stroke-linecap="square" points="1517 52 1611.55455 390.906818 1646.00227 621.556818 1611.55455 659"></polyline>
                <polyline id="Path-18" stroke="#222222" stroke-linecap="square" points="1646.00227 621.556818 1520.19318 524.204545 1611.55455 390.906818 1379 56 1338.96818 244.129545"></polyline>
                <polyline id="Path-19" stroke="#222222" stroke-linecap="square" points="1611.55455 390.906818 1338.96818 244.129545 1292.53864 52.4204545"></polyline>
                <polyline id="Path-20" stroke="#222222" stroke-linecap="square" points="1338.96818 241.134091 1520.19318 524.204545 1565.125 659"></polyline>
                <polyline id="Path-21" stroke="#222222" stroke-linecap="square" points="1520.19318 659 1409.36136 585.611364 1520.19318 524.204545"></polyline>
                <polygon id="Path-22" stroke="#222222" stroke-linecap="square" points="1409.36136 585.611364 1338.96818 241.134091 1234.12727 515.218182"></polygon>
                <polyline id="Path-23" stroke="#222222" stroke-linecap="square" points="1433.325 659 1409.36136 585.611364 1383.9 659"></polyline>
                <polyline id="Path-24" stroke="#222222" stroke-linecap="square" points="1195.18636 659 1210.16364 576.625 1243.11364 659"></polyline>
                <line x1="1210.16364" y1="576.625" x2="1409.36136" y2="585.611364" id="Path-25" stroke="#222222" stroke-linecap="square"></line>
                <line x1="1210.16364" y1="576.625" x2="1234.12727" y2="515.218182" id="Path-26" stroke="#222222" stroke-linecap="square"></line>
                <polyline id="Path-27" stroke="#222222" stroke-linecap="square" points="1009.46818 52.4204545 1338.96818 244.129545 771.329545 325.006818 1234.12727 515.218182"></polyline>
                <polyline id="Path-28" stroke="#222222" stroke-linecap="square" points="1087.35 659 1210.16364 576.625 771.329545 325.006818 810.270455 52.4204545"></polyline>
                <polyline id="Path-29" stroke="#222222" stroke-linecap="square" points="910.618182 659 771.329545 325.006818 796.790909 659"></polyline>
                <polyline id="Path-30" stroke="#222222" stroke-linecap="square" points="620.059091 659 771.329545 325.006818 650.013636 200.695455 753.356818 52.4204545"></polyline>
                <polyline id="Path-31" stroke="#222222" stroke-linecap="square" points="552.661364 52.4204545 650.013636 200.695455 659 52.4204545"></polyline>
                <polyline id="Path-32" stroke="#222222" stroke-linecap="square" points="542.177273 659 420.861364 325.006818 771.329545 325.006818"></polyline>
                <polyline id="Path-33" stroke="#222222" stroke-linecap="square" points="650.013636 200.695455 420.861364 325.006818 443.327273 52.4204545"></polyline>
                <polyline id="Path-34" stroke="#222222" stroke-linecap="square" points="325.006818 52.4204545 277.079545 118.320455 420.861364 325.006818 470.286364 659"></polyline>
                <polyline id="Path-35" stroke="#222222" stroke-linecap="square" points="420.861364 659 325.006818 533.190909 420.861364 325.006818"></polyline>
                <polyline id="Path-36" stroke="#222222" stroke-linecap="square" points="420.861364 325.006818 235.143182 393.902273 277.079545 118.320455 235.143182 52.4204545"></polyline>
                <line x1="325.006818" y1="533.190909" x2="235.143182" y2="393.902273" id="Path-37" stroke="#222222" stroke-linecap="square"></line>
                <polyline id="Path-38" stroke="#222222" stroke-linecap="square" points="325.006818 533.190909 235.143182 659 235.143182 393.902273"></polyline>
                <polyline id="Path-39" stroke="#222222" stroke-linecap="square" points="235.143182 393.902273 169.243182 137.790909 202.193182 52.4204545"></polyline>
                <line x1="169.243182" y1="137.790909" x2="277.079545" y2="118.320455" id="Path-40" stroke="#222222" stroke-linecap="square"></line>
                <line x1="169.243182" y1="137.790909" x2="107.836364" y2="52.4204545" id="Path-41" stroke="#222222" stroke-linecap="square"></line>
                <polyline id="Path-42" stroke="#222222" stroke-linecap="square" points="34.4477273 52.4204545 83.8727273 253.115909 169.243182 137.790909"></polyline>
                <polyline id="Path-43" stroke="#222222" stroke-linecap="square" points="0 299.545455 83.8727273 253.115909 235.143182 393.902273 0 429.847727"></polyline>
                <line x1="83.8727273" y1="253.115909" x2="0" y2="429.847727" id="Path-44" stroke="#222222" stroke-linecap="square"></line>
                <polyline id="Path-45" stroke="#222222" stroke-linecap="square" points="0 431.345455 43.4340909 573.629545 235.143182 393.902273"></polyline>
                <line x1="43.4340909" y1="573.629545" x2="196.202273" y2="659" id="Path-46" stroke="#222222" stroke-linecap="square"></line>
                <line x1="43.4340909" y1="573.629545" x2="17.9727273" y2="659" id="Path-47" stroke="#222222" stroke-linecap="square"></line>
                <path d="M1646.01591,616.570455 C1648.77733,616.570455 1651.01591,618.809031 1651.01591,621.570455 C1651.01591,624.331878 1648.77733,626.570455 1646.01591,626.570455 C1643.25449,626.570455 1641.01591,624.331878 1641.01591,621.570455 C1641.01591,618.809031 1643.25449,616.570455 1646.01591,616.570455 Z M2156,581 C2158.76142,581 2161,583.238576 2161,586 C2161,588.761424 2158.76142,591 2156,591 C2153.23858,591 2151,588.761424 2151,586 C2151,583.238576 2153.23858,581 2156,581 Z M1409.375,580.625 C1412.13642,580.625 1414.375,582.863576 1414.375,585.625 C1414.375,588.386424 1412.13642,590.625 1409.375,590.625 C1406.61358,590.625 1404.375,588.386424 1404.375,585.625 C1404.375,582.863576 1406.61358,580.625 1409.375,580.625 Z M1210.17727,571.638636 C1212.9387,571.638636 1215.17727,573.877213 1215.17727,576.638636 C1215.17727,579.40006 1212.9387,581.638636 1210.17727,581.638636 C1207.41585,581.638636 1205.17727,579.40006 1205.17727,576.638636 C1205.17727,573.877213 1207.41585,571.638636 1210.17727,571.638636 Z M43.027273,567.709091 C45.7886967,567.709091 48.027273,569.947667 48.027273,572.709091 C48.027273,575.470515 45.7886967,577.709091 43.027273,577.709091 C40.2658493,577.709091 38.027273,575.470515 38.027273,572.709091 C38.027273,569.947667 40.2658493,567.709091 43.027273,567.709091 Z M325.027273,528.709091 C327.788697,528.709091 330.027273,530.947667 330.027273,533.709091 C330.027273,536.470515 327.788697,538.709091 325.027273,538.709091 C322.265849,538.709091 320.027273,536.470515 320.027273,533.709091 C320.027273,530.947667 322.265849,528.709091 325.027273,528.709091 Z M1520.21136,518.218182 C1522.97279,518.218182 1525.21136,520.456758 1525.21136,523.218182 C1525.21136,525.979606 1522.97279,528.218182 1520.21136,528.218182 C1517.44994,528.218182 1515.21136,525.979606 1515.21136,523.218182 C1515.21136,520.456758 1517.44994,518.218182 1520.21136,518.218182 Z M1234.14091,510.231818 C1236.90233,510.231818 1239.14091,512.470394 1239.14091,515.231818 C1239.14091,517.993242 1236.90233,520.231818 1234.14091,520.231818 C1231.37949,520.231818 1229.14091,517.993242 1229.14091,515.231818 C1229.14091,512.470394 1231.37949,510.231818 1234.14091,510.231818 Z M1975.18636,468.960227 C1977.94779,468.960227 1980.18636,471.198804 1980.18636,473.960227 C1980.18636,476.721651 1977.94779,478.960227 1975.18636,478.960227 C1972.42494,478.960227 1970.18636,476.721651 1970.18636,473.960227 C1970.18636,471.198804 1972.42494,468.960227 1975.18636,468.960227 Z M2157.18636,423.960227 C2159.94779,423.960227 2162.18636,426.198804 2162.18636,428.960227 C2162.18636,431.721651 2159.94779,433.960227 2157.18636,433.960227 C2154.42494,433.960227 2152.18636,431.721651 2152.18636,428.960227 C2152.18636,426.198804 2154.42494,423.960227 2157.18636,423.960227 Z M1684.95682,417.372727 C1687.71824,417.372727 1689.95682,419.611304 1689.95682,422.372727 C1689.95682,425.134151 1687.71824,427.372727 1684.95682,427.372727 C1682.19539,427.372727 1679.95682,425.134151 1679.95682,422.372727 C1679.95682,419.611304 1682.19539,417.372727 1684.95682,417.372727 Z M235.027273,388.709091 C237.788697,388.709091 240.027273,390.947667 240.027273,393.709091 C240.027273,396.470515 237.788697,398.709091 235.027273,398.709091 C232.265849,398.709091 230.027273,396.470515 230.027273,393.709091 C230.027273,390.947667 232.265849,388.709091 235.027273,388.709091 Z M1611.56818,385.920455 C1614.32961,385.920455 1616.56818,388.159031 1616.56818,390.920455 C1616.56818,393.681878 1614.32961,395.920455 1611.56818,395.920455 C1608.80676,395.920455 1606.56818,393.681878 1606.56818,390.920455 C1606.56818,388.159031 1608.80676,385.920455 1611.56818,385.920455 Z M421.027273,320.709091 C423.788697,320.709091 426.027273,322.947667 426.027273,325.709091 C426.027273,328.470515 423.788697,330.709091 421.027273,330.709091 C418.265849,330.709091 416.027273,328.470515 416.027273,325.709091 C416.027273,322.947667 418.265849,320.709091 421.027273,320.709091 Z M771.343182,320.020455 C774.104606,320.020455 776.343182,322.259031 776.343182,325.020455 C776.343182,327.781878 774.104606,330.020455 771.343182,330.020455 C768.581758,330.020455 766.343182,327.781878 766.343182,325.020455 C766.343182,322.259031 768.581758,320.020455 771.343182,320.020455 Z M1792.79318,275.088636 C1795.55461,275.088636 1797.79318,277.327213 1797.79318,280.088636 C1797.79318,282.85006 1795.55461,285.088636 1792.79318,285.088636 C1790.03176,285.088636 1787.79318,282.85006 1787.79318,280.088636 C1787.79318,277.327213 1790.03176,275.088636 1792.79318,275.088636 Z M2157,266 C2159.76142,266 2162,268.238576 2162,271 C2162,273.761424 2159.76142,276 2157,276 C2154.23858,276 2152,273.761424 2152,271 C2152,268.238576 2154.23858,266 2157,266 Z M1960.18636,256.960227 C1962.94779,256.960227 1965.18636,259.198804 1965.18636,261.960227 C1965.18636,264.721651 1962.94779,266.960227 1960.18636,266.960227 C1957.42494,266.960227 1955.18636,264.721651 1955.18636,261.960227 C1955.18636,259.198804 1957.42494,256.960227 1960.18636,256.960227 Z M83.027273,247.709091 C85.7886967,247.709091 88.027273,249.947667 88.027273,252.709091 C88.027273,255.470515 85.7886967,257.709091 83.027273,257.709091 C80.2658493,257.709091 78.027273,255.470515 78.027273,252.709091 C78.027273,249.947667 80.2658493,247.709091 83.027273,247.709091 Z M1339.98182,239.147727 C1342.74324,239.147727 1344.98182,241.386304 1344.98182,244.147727 C1344.98182,246.909151 1342.74324,249.147727 1339.98182,249.147727 C1337.22039,249.147727 1334.98182,246.909151 1334.98182,244.147727 C1334.98182,241.386304 1337.22039,239.147727 1339.98182,239.147727 Z M650.027273,195.709091 C652.788697,195.709091 655.027273,197.947667 655.027273,200.709091 C655.027273,203.470515 652.788697,205.709091 650.027273,205.709091 C647.265849,205.709091 645.027273,203.470515 645.027273,200.709091 C645.027273,197.947667 647.265849,195.709091 650.027273,195.709091 Z M1863.18636,194.960227 C1865.94779,194.960227 1868.18636,197.198804 1868.18636,199.960227 C1868.18636,202.721651 1865.94779,204.960227 1863.18636,204.960227 C1860.42494,204.960227 1858.18636,202.721651 1858.18636,199.960227 C1858.18636,197.198804 1860.42494,194.960227 1863.18636,194.960227 Z M1975.18636,141.960227 C1977.94779,141.960227 1980.18636,144.198804 1980.18636,146.960227 C1980.18636,149.721651 1977.94779,151.960227 1975.18636,151.960227 C1972.42494,151.960227 1970.18636,149.721651 1970.18636,146.960227 C1970.18636,144.198804 1972.42494,141.960227 1975.18636,141.960227 Z M169.027273,131.709091 C171.788697,131.709091 174.027273,133.947667 174.027273,136.709091 C174.027273,139.470515 171.788697,141.709091 169.027273,141.709091 C166.265849,141.709091 164.027273,139.470515 164.027273,136.709091 C164.027273,133.947667 166.265849,131.709091 169.027273,131.709091 Z M277.027273,112.709091 C279.788697,112.709091 282.027273,114.947667 282.027273,117.709091 C282.027273,120.470515 279.788697,122.709091 277.027273,122.709091 C274.265849,122.709091 272.027273,120.470515 272.027273,117.709091 C272.027273,114.947667 274.265849,112.709091 277.027273,112.709091 Z" id="Combined-Shape" fill="#222222"></path>
            </g>
        </g>
    </g>
</svg>