<?xml version="1.0" encoding="UTF-8"?>
<svg width="90px" height="74px" viewBox="0 0 90 74" version="1.1" xmlns="http://www.w3.org/2000/svg" xmlns:xlink="http://www.w3.org/1999/xlink">
    <title>noun_Error_2602002</title>
    <defs>
        <path d="M458,279 L479.555955,279 L479.555955,279 L514.93753,279 L549.501364,279 L885.00985,279 L998.816312,279 C1000.47262,279.001406 1001.81554,280.343695 1001.81772,282 L1002,671 L1002,671 L455.183688,671 L455.001406,282 C454.999224,280.343146 456.34174,278.999371 457.998594,278.998595 C457.999063,278.998595 457.999531,278.998595 458,279 Z" id="path-1"></path>
        <filter x="-2.6%" y="-3.3%" width="105.1%" height="107.1%" filterUnits="objectBoundingBox" id="filter-2">
            <feMorphology radius="0.5" operator="dilate" in="SourceAlpha" result="shadowSpreadOuter1"></feMorphology>
            <feOffset dx="0" dy="1" in="shadowSpreadOuter1" result="shadowOffsetOuter1"></feOffset>
            <feGaussianBlur stdDeviation="4" in="shadowOffsetOuter1" result="shadowBlurOuter1"></feGaussianBlur>
            <feColorMatrix values="0 0 0 0 0   0 0 0 0 0   0 0 0 0 0  0 0 0 0.22 0" type="matrix" in="shadowBlurOuter1"></feColorMatrix>
        </filter>
    </defs>
    <g id="Sprint-6" stroke="none" stroke-width="1" fill="none" fill-rule="evenodd">
        <g id="Lilly-SessionStart-Error" transform="translate(-684.000000, -324.000000)">
            <rect id="Rectangle" fill-opacity="0.6" fill="#82786F" x="0" y="0" width="1440" height="1245"></rect>
            <g id="Rectangle">
                <use fill="black" fill-opacity="1" filter="url(#filter-2)" xlink:href="#path-1"></use>
                <use fill="#FFFFFF" fill-rule="evenodd" xlink:href="#path-1"></use>
            </g>
            <g id="noun_Error_2602002" transform="translate(683.999822, 324.000000)" fill="#D5D2CA" fill-rule="nonzero">
                <path d="M41.5001778,61.015 C41.5001778,60.531 41.5871778,60.077 41.7671778,59.648 C41.9441778,59.22 42.1881778,58.849 42.4971778,58.533 C42.8061778,58.217 43.1761778,57.966 43.6081778,57.78 C44.0381778,57.595 44.4971778,57.501 44.9861778,57.501 C45.4731778,57.501 45.9321778,57.596 46.3621778,57.78 C46.7941778,57.966 47.1681778,58.217 47.4871778,58.533 C47.8061778,58.849 48.0531778,59.221 48.2321778,59.648 C48.4101778,60.077 48.5001778,60.531 48.5001778,61.015 C48.5001778,61.516 48.4101778,61.976 48.2321778,62.395 C48.0531778,62.812 47.8061778,63.181 47.4871778,63.497 C47.1681778,63.813 46.7941778,64.059 46.3621778,64.236 C45.9311778,64.412 45.4721778,64.501 44.9861778,64.501 C44.4971778,64.501 44.0381778,64.412 43.6081778,64.236 C43.1761778,64.058 42.8061778,63.812 42.4971778,63.497 C42.1881778,63.182 41.9441778,62.812 41.7671778,62.395 C41.5871778,61.976 41.5001778,61.516 41.5001778,61.015 Z M47.5891778,25.5 L47.5891778,42.666 C47.5891778,43.566 47.5751778,44.447 47.5441778,45.308 C47.5161778,46.167 47.4711778,47.034 47.4111778,47.904 C47.3511778,48.774 47.2781778,49.666 47.1901778,50.576 C47.1011778,51.486 46.9971778,52.462 46.8791778,53.501 L43.2981778,53.501 C43.1801778,52.462 43.0761778,51.486 42.9881778,50.576 C42.8991778,49.666 42.8241778,48.774 42.7661778,47.904 C42.7061778,47.034 42.6621778,46.168 42.6331778,45.308 C42.6021778,44.448 42.5871778,43.567 42.5871778,42.666 L42.5871778,25.5 L47.5891778,25.5 Z M45.0001778,4 L86.0001778,70 L4.00017779,70 L45.0001778,4 M45.0001778,0 C43.6171778,0 42.3321778,0.714 41.6021778,1.889 L0.602177792,67.889 C-0.163822208,69.122 -0.201822208,70.674 0.504177792,71.943 C1.21017779,73.213 2.54817779,74 4.00017779,74 L86.0001778,74 C87.4521778,74 88.7901778,73.213 89.4961778,71.943 C90.2011778,70.674 90.1641778,69.123 89.3971778,67.889 L48.3971778,1.889 C47.6681778,0.714 46.3831778,0 45.0001778,0 L45.0001778,0 Z" id="Shape"></path>
            </g>
        </g>
    </g>
</svg>